<?xml version="1.0" encoding="UTF-8"?>
<svg id="Layer_2" data-name="Layer 2" xmlns="http://www.w3.org/2000/svg" viewBox="0 0 4063.98 3199.54">
  <defs>
    <style>
      .cls-1 {
        fill: #769de2;
      }

      .cls-2 {
        fill: #6d93e8;
      }

      .cls-3 {
        fill: #6386ee;
      }
    </style>
  </defs>
  <g id="Layer_1-2" data-name="Layer 1">
    <g>
      <rect class="cls-3" width="4063.98" height="3199.54"/>
      <polygon class="cls-2" points="4063.98 2462.7 4063.98 736.83 4034.65 736.83 4034.65 876.4 3979.93 876.4 3979.93 736.83 3891.54 736.83 3891.54 828.27 3748.43 828.27 3748.43 967.84 3622.16 967.84 3622.16 736.83 3521.14 736.83 3521.14 871.58 3382.25 871.58 3382.25 736.83 3285.44 736.83 3285.44 861.96 3167.59 861.96 3167.59 736.83 3028.69 736.83 3028.69 794.59 2835.07 794.59 2835.07 736.83 2717.22 736.83 2717.22 905.27 2603.57 905.27 2603.57 736.83 2515.18 736.83 2515.18 828.27 2351.03 828.27 2351.03 938.96 2195.3 938.96 2195.3 784.95 2090.07 784.95 2090.07 866.78 1997.47 866.78 1997.47 770.52 1866.99 770.52 1866.99 886.02 1673.37 886.02 1673.37 736.83 1517.64 736.83 1517.64 809.02 1387.16 809.02 1387.16 736.83 1269.31 736.83 1269.31 804.21 1092.53 804.21 1092.53 924.53 978.88 924.53 978.88 736.83 877.87 736.83 877.87 837.9 734.76 837.9 734.76 736.83 663.2 736.83 663.2 799.39 444.33 799.39 444.33 953.4 343.32 953.4 343.32 736.83 191.79 736.83 191.79 823.46 0 823.46 0 2462.7 4063.98 2462.7"/>
      <polygon class="cls-1" points="4063.98 3199.54 4063.98 1473.66 4034.65 1473.66 4034.65 1613.23 3979.93 1613.23 3979.93 1473.66 3891.54 1473.66 3891.54 1565.11 3748.43 1565.11 3748.43 1704.67 3622.16 1704.67 3622.16 1473.66 3521.14 1473.66 3521.14 1608.42 3382.25 1608.42 3382.25 1473.66 3285.44 1473.66 3285.44 1598.8 3167.59 1598.8 3167.59 1473.66 3028.69 1473.66 3028.69 1531.42 2835.07 1531.42 2835.07 1473.66 2717.22 1473.66 2717.22 1642.11 2603.57 1642.11 2603.57 1473.66 2515.18 1473.66 2515.18 1565.11 2351.03 1565.11 2351.03 1675.8 2195.3 1675.8 2195.3 1521.79 2090.07 1521.79 2090.07 1603.61 1997.47 1603.61 1997.47 1507.35 1866.99 1507.35 1866.99 1622.86 1673.37 1622.86 1673.37 1473.66 1517.64 1473.66 1517.64 1545.85 1387.16 1545.85 1387.16 1473.66 1269.31 1473.66 1269.31 1541.04 1092.53 1541.04 1092.53 1661.36 978.88 1661.36 978.88 1473.66 877.87 1473.66 877.87 1574.73 734.76 1574.73 734.76 1473.66 663.2 1473.66 663.2 1536.23 444.33 1536.23 444.33 1690.24 343.32 1690.24 343.32 1473.66 191.79 1473.66 191.79 1560.29 0 1560.29 0 3199.54 4063.98 3199.54"/>
    </g>
  </g>
</svg>